<svg xmlns="http://www.w3.org/2000/svg" viewBox="0 0 1024 1024"><path fill="#000000" d="M896 192h-768c-35.346 0-64 28.654-64 64v0 512c0 35.346 28.654 64 64 64v0h768c35.346 0 64-28.654 64-64v0-512c0-35.346-28.654-64-64-64v0zM896 768h-768v-512h768v512zM475.68 606.84c2.702 4.594 4.299 10.121 4.299 16.020 0 11.773-6.358 22.062-15.828 27.619l-0.151 0.082c-22.95 13.479-50.549 21.44-80.007 21.44-88.366 0-160-71.634-160-160s71.634-160 160-160c29.458 0 57.057 7.961 80.762 21.849l-0.755-0.409c10.040 5.532 16.73 16.045 16.73 28.121 0 17.673-14.327 32-32 32-6.19 0-11.969-1.757-16.866-4.8l0.136 0.079c-13.76-8.073-30.305-12.84-47.963-12.84-53.019 0-96 42.981-96 96s42.981 96 96 96c17.658 0 34.202-4.767 48.416-13.085l-0.454 0.245c4.587-2.692 10.103-4.281 15.99-4.281 11.766 0 22.049 6.35 27.609 15.811l0.082 0.15zM795.68 606.84c2.702 4.594 4.299 10.121 4.299 16.020 0 11.773-6.358 22.062-15.828 27.619l-0.151 0.082c-22.95 13.479-50.549 21.44-80.007 21.44-88.366 0-160-71.634-160-160s71.634-160 160-160c29.458 0 57.057 7.961 80.762 21.849l-0.755-0.409c10.040 5.532 16.73 16.045 16.73 28.121 0 17.673-14.327 32-32 32-6.19 0-11.969-1.757-16.866-4.8l0.136 0.079c-13.76-8.073-30.305-12.84-47.963-12.84-53.019 0-96 42.981-96 96s42.981 96 96 96c17.658 0 34.202-4.767 48.416-13.085l-0.454 0.245c4.587-2.692 10.103-4.281 15.99-4.281 11.766 0 22.049 6.35 27.609 15.811l0.082 0.15z"/></svg>